<?xml version="1.0" encoding="UTF-8"?>
<svg id="Layer_1" data-name="Layer 1" xmlns="http://www.w3.org/2000/svg" version="1.1" viewBox="0 0 340 108.1">
  <defs>
    <style>
      .cls-1 {
        fill: #5fbcbb;
      }

      .cls-1, .cls-2, .cls-3 {
        stroke-width: 0px;
      }

      .cls-2 {
        fill: #003d4d;
      }

      .cls-3 {
        fill: #e26251;
      }

      .cls-4 {
        isolation: isolate;
      }
    </style>
  </defs>
  <g class="cls-4">
    <g class="cls-4">
      <path class="cls-1" d="M21.9,28.5v7.6c0,.7,0,1.3,0,2s-.2,1.2-.4,1.7-.6.9-1.1,1.2-1.2.5-2.1.5-1.6-.2-2-.5-.8-.7-1-1.2-.3-1.1-.4-1.7,0-1.3,0-2V14c0-.7,0-1.3,0-2s.2-1.2.4-1.7.6-.9,1-1.2,1.2-.5,2-.5h7.7c1.9,0,3.7.5,5.2,1.2.7.3,1.3.7,1.9,1.2s1.2,1,1.7,1.7.9,1.5,1.2,2.4.4,2,.4,3.2-.3,3.1-.8,4.4-1.3,2.3-2.3,3.2-2.2,1.5-3.6,1.9-3,.6-4.8.6h-3ZM25.1,23c.8,0,1.5-.2,2.1-.6.3-.1.5-.3.8-.5s.5-.5.7-.8.4-.7.5-1.1.2-.9.2-1.5,0-1-.2-1.4-.3-.7-.5-1-.4-.5-.6-.7-.5-.4-.7-.5c-.6-.3-1.3-.5-2-.5h-3.4v8.8h3.2Z"/>
      <path class="cls-1" d="M58.2,36.2c0,.7,0,1.3,0,1.9s-.2,1.2-.4,1.7-.6.9-1.1,1.2-1.1.5-2,.5-1.5-.1-2-.4-.8-.6-1.1-1.1-.4-.8-.4-1.3,0-.8,0-1.1c-.1.5-.3.9-.6,1.4s-.6.9-1,1.3-.9.7-1.5.9-1.2.4-2,.4-1.7-.1-2.6-.4-1.6-.8-2.3-1.4-1.2-1.5-1.7-2.6-.6-2.4-.6-3.9v-6.8c0-1.6.2-2.9.6-3.9s1-1.9,1.7-2.6,1.5-1.1,2.3-1.4,1.7-.4,2.6-.4,1.4.1,2,.4,1.1.5,1.5.9.7.8,1,1.3.5.9.6,1.4c0-.8.1-1.4.3-1.9s.5-.9.8-1.2.7-.5,1.2-.6.9-.2,1.3-.2c.8,0,1.4.2,1.9.5s.8.7,1.1,1.2.4,1.1.5,1.7.1,1.3.1,2v12.8ZM46,32.6c0,.4,0,.8,0,1.2s.1.8.3,1.1.3.6.6.8.7.3,1.1.3,1.1-.1,1.5-.4.7-.7.9-1.3.4-1.3.5-2.2.1-1.9.2-3.1c0-.5,0-1-.1-1.7s-.2-1.2-.5-1.8-.5-1-.9-1.4-.9-.6-1.5-.6-.9,0-1.1.3-.5.4-.6.8-.2.7-.3,1.1,0,.8,0,1.2v5.7Z"/>
      <path class="cls-1" d="M78.7,21.5c0,1.2-.3,2.1-.9,2.7s-1.5.8-2.6.8-.4,0-.7,0-.6,0-.9.2-.7.2-1,.4-.6.5-.9.8-.5.8-.7,1.3-.3,1.1-.3,1.9v6.7c0,.6,0,1.3-.1,1.9s-.2,1.2-.5,1.6-.6.9-1.1,1.2-1.1.4-1.9.4-1.4-.1-1.9-.4-.8-.7-1-1.2-.4-1-.5-1.6-.1-1.2-.1-1.9v-13.1c0-.7,0-1.3.1-1.9s.2-1.2.5-1.7.6-.9,1-1.2,1.1-.4,1.9-.4,1.4.2,1.8.5.7.8.9,1.4.3,1.2.4,1.9,0,1.3,0,2h.4c.2-.9.5-1.7.9-2.4s.8-1.3,1.2-1.8.9-.9,1.4-1.1,1-.4,1.5-.4,1.1,0,1.5.2.7.3.9.6.4.6.4,1.1.1,1,.1,1.6Z"/>
      <path class="cls-1" d="M82.8,13.9c0-.7,0-1.3,0-1.9s.2-1.2.4-1.7.6-.9,1-1.2,1.1-.4,1.9-.4,1.4.1,1.9.4.8.7,1,1.2.3,1,.4,1.7,0,1.3,0,1.9v9.2h.4l4.8-5.7c.3-.3.6-.6,1-.7s.8-.2,1.2-.2.8,0,1.2.2.8.4,1.1.6.6.6.8,1,.3.8.3,1.3-.2,1.2-.7,1.7l-4.2,5,4.6,8.8c.3.6.5,1.1.7,1.7s.3,1.1.3,1.6-.1.9-.3,1.3-.5.7-.9,1-.7.5-1.2.6-.8.2-1.3.2-1-.1-1.4-.4-.8-.6-1.1-.9-.6-.8-.8-1.2-.4-.8-.6-1.2l-2.6-5.6h-1.3v3.9c0,.7,0,1.3,0,1.9s-.2,1.2-.4,1.7-.5.9-1,1.2-1.1.4-1.9.4-1.4-.1-1.9-.4-.8-.7-1-1.2-.4-1.1-.4-1.7,0-1.3,0-1.9V13.9Z"/>
      <path class="cls-1" d="M125,28.1c0,.2,0,.5,0,.9s-.2.7-.4,1-.5.6-1,.8-1.1.3-1.9.3h-9.3v2.2c0,.4,0,.8.1,1.2s.3.8.5,1.1.5.6.9.8.8.3,1.4.3,1.1,0,1.4-.2.6-.3.8-.6.4-.5.5-.7.4-.5.6-.7.6-.4,1.1-.6,1.1-.2,1.9-.2.8,0,1.1,0,.7.2,1,.4.5.4.7.7.3.7.3,1.2c0,1-.3,1.9-1,2.5s-1.4,1.2-2.4,1.6-2,.7-3.2.9-2.2.3-3.2.3c-1.3,0-2.5-.2-3.7-.5s-2.2-.8-3.1-1.5-1.6-1.6-2.1-2.7-.8-2.5-.8-4.1v-5.5c0-1.5.2-2.7.5-3.8s.8-1.9,1.4-2.6,1.2-1.2,1.9-1.6,1.4-.7,2.1-.9,1.4-.3,2.1-.4,1.2,0,1.7,0c1.6,0,2.9.1,4,.4s2.1.6,2.8,1.1,1.3,1,1.8,1.6.8,1.2,1,1.8.4,1.3.4,1.9,0,1.3,0,1.8v1.5ZM112.3,27.5h5.9c0-.7,0-1.4,0-2s-.2-1.1-.4-1.4-.5-.7-.9-.9-1-.3-1.8-.3-1.1.1-1.5.3-.6.5-.8.8-.3.6-.4,1,0,.6,0,.9v1.6Z"/>
      <path class="cls-1" d="M145,21.5c0,1.2-.3,2.1-.9,2.7s-1.5.8-2.6.8-.4,0-.7,0-.6,0-.9.2-.7.2-1,.4-.6.5-.9.8-.5.8-.7,1.3-.3,1.1-.3,1.9v6.7c0,.6,0,1.3-.1,1.9s-.2,1.2-.5,1.6-.6.9-1.1,1.2-1.1.4-1.9.4-1.4-.1-1.9-.4-.8-.7-1-1.2-.4-1-.5-1.6-.1-1.2-.1-1.9v-13.1c0-.7,0-1.3.1-1.9s.2-1.2.5-1.7.6-.9,1-1.2,1.1-.4,1.9-.4,1.4.2,1.8.5.7.8.9,1.4.3,1.2.4,1.9,0,1.3,0,2h.4c.2-.9.5-1.7.9-2.4s.8-1.3,1.2-1.8.9-.9,1.4-1.1,1-.4,1.5-.4,1.1,0,1.5.2.7.3.9.6.4.6.4,1.1.1,1,.1,1.6Z"/>
      <path class="cls-1" d="M174.6,28.5v7.6c0,.7,0,1.3,0,2s-.2,1.2-.4,1.7-.6.9-1.1,1.2-1.2.5-2.1.5-1.6-.2-2-.5-.8-.7-1-1.2-.3-1.1-.4-1.7,0-1.3,0-2V14c0-.7,0-1.3,0-2s.2-1.2.4-1.7.6-.9,1-1.2,1.2-.5,2-.5h7.7c1.9,0,3.7.5,5.2,1.2.7.3,1.3.7,1.9,1.2s1.2,1,1.7,1.7.9,1.5,1.2,2.4.4,2,.4,3.2-.3,3.1-.8,4.4-1.3,2.3-2.3,3.2-2.2,1.5-3.6,1.9-3,.6-4.8.6h-3ZM177.8,23c.8,0,1.5-.2,2.1-.6.3-.1.5-.3.8-.5s.5-.5.7-.8.4-.7.5-1.1.2-.9.2-1.5,0-1-.2-1.4-.3-.7-.5-1-.4-.5-.6-.7-.5-.4-.7-.5c-.6-.3-1.3-.5-2-.5h-3.4v8.8h3.2Z"/>
      <path class="cls-1" d="M211.5,28.1c0,.2,0,.5,0,.9s-.2.7-.4,1-.5.6-1,.8-1.1.3-1.9.3h-9.3v2.2c0,.4,0,.8.1,1.2s.3.8.5,1.1.5.6.9.8.8.3,1.4.3,1.1,0,1.4-.2.6-.3.8-.6.4-.5.5-.7.4-.5.6-.7.6-.4,1.1-.6,1.1-.2,1.9-.2.8,0,1.1,0,.7.2,1,.4.5.4.7.7.3.7.3,1.2c0,1-.3,1.9-1,2.5s-1.4,1.2-2.4,1.6-2,.7-3.2.9-2.2.3-3.2.3c-1.3,0-2.5-.2-3.7-.5s-2.2-.8-3.1-1.5-1.6-1.6-2.1-2.7-.8-2.5-.8-4.1v-5.5c0-1.5.2-2.7.5-3.8s.8-1.9,1.4-2.6,1.2-1.2,1.9-1.6,1.4-.7,2.1-.9,1.4-.3,2.1-.4,1.2,0,1.7,0c1.6,0,2.9.1,4,.4s2.1.6,2.8,1.1,1.3,1,1.8,1.6.8,1.2,1,1.8.4,1.3.4,1.9,0,1.3,0,1.8v1.5ZM198.8,27.5h5.9c0-.7,0-1.4,0-2s-.2-1.1-.4-1.4-.5-.7-.9-.9-1-.3-1.8-.3-1.1.1-1.5.3-.6.5-.8.8-.3.6-.4,1,0,.6,0,.9v1.6Z"/>
      <path class="cls-1" d="M236.1,36.1c0,.7,0,1.3-.1,2s-.2,1.2-.5,1.7-.6.9-1.1,1.2-1.1.5-1.9.5-1.4-.2-1.9-.5-.8-.7-1.1-1.2-.4-1.1-.5-1.7-.1-1.3-.1-2v-9.1c0-.4,0-.9,0-1.3s-.1-.8-.3-1.1-.3-.6-.6-.8-.6-.3-1.1-.3-1.2.2-1.5.6-.7,1-.9,1.7-.4,1.6-.5,2.6-.1,2.1-.1,3.2v4.5c0,.7,0,1.3-.1,2s-.2,1.2-.5,1.7-.6.9-1.1,1.2-1.1.5-1.9.5-1.4-.2-1.9-.5-.8-.7-1.1-1.2-.4-1.1-.5-1.7-.1-1.3-.1-2v-12.8c0-.7,0-1.3,0-2s.2-1.2.4-1.7.6-.9,1.1-1.2,1.1-.5,2-.5,1.5.1,2,.4.8.6,1.1,1,.4.8.5,1.3,0,.8,0,1.2c.1-.5.3-.9.6-1.4s.6-.9,1-1.3.9-.7,1.5-.9,1.2-.4,2-.4,1.7.1,2.6.4,1.6.8,2.3,1.4,1.2,1.5,1.7,2.6.6,2.4.6,3.9v9.8Z"/>
      <path class="cls-1" d="M260.2,36.2c0,.7,0,1.3,0,1.9s-.2,1.2-.4,1.7-.6.9-1.1,1.2-1.1.5-2,.5-1.5-.1-2-.4-.8-.6-1.1-1.1-.4-.8-.4-1.3,0-.8,0-1.1c-.1.5-.3.9-.6,1.4s-.6.9-1,1.3-.9.7-1.5.9-1.2.4-2,.4-1.7-.1-2.6-.4-1.6-.8-2.3-1.4-1.2-1.5-1.7-2.6-.6-2.4-.6-3.9v-6.8c0-1.6.2-2.9.6-3.9s1-1.9,1.7-2.6,1.5-1.1,2.3-1.4,1.7-.4,2.6-.4,1.4.1,2,.4,1.1.5,1.5.9.7.8,1,1.3.5.9.6,1.4c0-.8.1-1.4.3-1.9s.5-.9.8-1.2.7-.5,1.2-.6.9-.2,1.3-.2c.8,0,1.4.2,1.9.5s.8.7,1.1,1.2.4,1.1.5,1.7.1,1.3.1,2v12.8ZM248,32.6c0,.4,0,.8,0,1.2s.1.8.3,1.1.3.6.6.8.7.3,1.1.3,1.1-.1,1.5-.4.7-.7.9-1.3.4-1.3.5-2.2.1-1.9.2-3.1c0-.5,0-1-.1-1.7s-.2-1.2-.5-1.8-.5-1-.9-1.4-.9-.6-1.5-.6-.9,0-1.1.3-.5.4-.6.8-.2.7-.3,1.1,0,.8,0,1.2v5.7Z"/>
      <path class="cls-1" d="M275.9,18c.4,0,.8,0,1.2,0s.8.2,1.1.4.6.5.8.9.3.9.3,1.6-.1,1.1-.3,1.5-.5.6-.8.8-.7.3-1.1.4-.8,0-1.2,0h-1.4v12.4c0,.7,0,1.3-.1,2s-.2,1.2-.5,1.7-.6.9-1.1,1.2-1.2.4-2,.4-1.4-.1-1.9-.4-.8-.7-1-1.2-.4-1.1-.4-1.7,0-1.3,0-2v-12.4h-1.3c-.4,0-.9,0-1.3,0s-.8-.2-1.1-.4-.6-.5-.7-.8-.3-.9-.3-1.5,0-1.2.3-1.6.4-.7.7-.9.7-.3,1.1-.4.8,0,1.3,0h1.3c0-1.4,0-2.6.2-3.8s.4-2.1.9-3,1.2-1.5,2.2-1.9,2.3-.7,3.9-.7,1.4,0,2,.2,1.2.3,1.6.6.8.6,1.1,1,.4.9.4,1.6,0,1-.3,1.4-.4.7-.7.9-.6.4-.9.5-.6.1-.9.1-.5,0-.7-.2-.4-.2-.7-.2-.4,0-.5.2-.2.3-.3.6-.1.5-.1.8,0,.6,0,.8v1h1.4Z"/>
      <path class="cls-1" d="M283.9,23.3c0-.7,0-1.3.1-1.9s.2-1.2.5-1.7.6-.9,1.1-1.2,1.1-.5,1.9-.5,1.4.2,1.9.5.8.7,1.1,1.2.4,1.1.5,1.7.1,1.3.1,1.9v12.9c0,.7,0,1.3-.1,1.9s-.2,1.2-.5,1.7-.6.9-1.1,1.2-1.1.4-1.9.4-1.4-.1-1.9-.4-.8-.7-1.1-1.2-.4-1.1-.5-1.7-.1-1.3-.1-1.9v-12.9ZM291.1,12.2c0,1.2-.3,2.1-.9,2.7s-1.5.9-2.6.9-2-.3-2.6-.9-.9-1.5-.9-2.7.3-2.2.9-2.7,1.5-.8,2.6-.8,2.1.3,2.7.8.9,1.5.9,2.7Z"/>
      <path class="cls-1" d="M316.9,28.1c0,.2,0,.5,0,.9s-.2.7-.4,1-.5.6-1,.8-1.1.3-1.9.3h-9.3v2.2c0,.4,0,.8.1,1.2s.3.8.5,1.1.5.6.9.8.8.3,1.4.3,1.1,0,1.4-.2.6-.3.8-.6.4-.5.5-.7.4-.5.6-.7.6-.4,1.1-.6,1.1-.2,1.9-.2.8,0,1.1,0,.7.2,1,.4.5.4.7.7.3.7.3,1.2c0,1-.3,1.9-1,2.5s-1.4,1.2-2.4,1.6-2,.7-3.2.9-2.2.3-3.2.3c-1.3,0-2.5-.2-3.7-.5s-2.2-.8-3.1-1.5-1.6-1.6-2.1-2.7-.8-2.5-.8-4.1v-5.5c0-1.5.2-2.7.5-3.8s.8-1.9,1.4-2.6,1.2-1.2,1.9-1.6,1.4-.7,2.1-.9,1.4-.3,2.1-.4,1.2,0,1.7,0c1.6,0,2.9.1,4,.4s2.1.6,2.8,1.1,1.3,1,1.8,1.6.8,1.2,1,1.8.4,1.3.4,1.9,0,1.3,0,1.8v1.5ZM304.3,27.5h5.9c0-.7,0-1.4,0-2s-.2-1.1-.4-1.4-.5-.7-.9-.9-1-.3-1.8-.3-1.1.1-1.5.3-.6.5-.8.8-.3.6-.4,1,0,.6,0,.9v1.6Z"/>
      <path class="cls-1" d="M322.2,13.9c0-.7,0-1.3.1-1.9s.2-1.2.5-1.7.6-.9,1.1-1.2,1.1-.4,1.9-.4,1.5.1,1.9.4.8.7,1.1,1.2.4,1,.5,1.7.1,1.3.1,1.9v22.4c0,.7,0,1.3-.1,1.9s-.2,1.2-.5,1.7-.6.9-1.1,1.2-1.1.4-1.9.4-1.4-.1-1.9-.4-.8-.7-1.1-1.2-.4-1.1-.5-1.7-.1-1.3-.1-1.9V13.9Z"/>
    </g>
  </g>
  <g class="cls-4">
    <g class="cls-4">
      <path class="cls-2" d="M19.9,27.5v7.6c0,.7,0,1.3,0,2s-.2,1.2-.4,1.7-.6.9-1.1,1.2-1.2.5-2.1.5-1.6-.2-2-.5-.8-.7-1-1.2-.3-1.1-.4-1.7,0-1.3,0-2V12.9c0-.7,0-1.3,0-2s.2-1.2.4-1.7.6-.9,1-1.2,1.2-.5,2-.5h7.7c1.9,0,3.7.5,5.2,1.2.7.3,1.3.7,1.9,1.2s1.2,1,1.7,1.7.9,1.5,1.2,2.4.4,2,.4,3.2-.3,3.1-.8,4.4-1.3,2.3-2.3,3.2-2.2,1.5-3.6,1.9-3,.6-4.8.6h-3ZM23.1,21.9c.8,0,1.5-.2,2.1-.6.3-.1.5-.3.8-.5s.5-.5.7-.8.4-.7.5-1.1.2-.9.2-1.5,0-1-.2-1.4-.3-.7-.5-1-.4-.5-.6-.7-.5-.4-.7-.5c-.6-.3-1.3-.5-2-.5h-3.4v8.8h3.2Z"/>
      <path class="cls-2" d="M56.2,35.1c0,.7,0,1.3,0,1.9s-.2,1.2-.4,1.7-.6.9-1.1,1.2-1.1.5-2,.5-1.5-.1-2-.4-.8-.6-1.1-1.1-.4-.8-.4-1.3,0-.8,0-1.1c-.1.5-.3.9-.6,1.4s-.6.9-1,1.3-.9.7-1.5.9-1.2.4-2,.4-1.7-.1-2.6-.4-1.6-.8-2.3-1.4-1.2-1.5-1.7-2.6-.6-2.4-.6-3.9v-6.8c0-1.6.2-2.9.6-3.9s1-1.9,1.7-2.6,1.5-1.1,2.3-1.4,1.7-.4,2.6-.4,1.4.1,2,.4,1.1.5,1.5.9.7.8,1,1.3.5.9.6,1.4c0-.8.1-1.4.3-1.9s.5-.9.8-1.2.7-.5,1.2-.6.9-.2,1.3-.2c.8,0,1.4.2,1.9.5s.8.7,1.1,1.2.4,1.1.5,1.7.1,1.3.1,2v12.8ZM44,31.5c0,.4,0,.8,0,1.2s.1.8.3,1.1.3.6.6.8.7.3,1.1.3,1.1-.1,1.5-.4.7-.7.9-1.3.4-1.3.5-2.2.1-1.9.2-3.1c0-.5,0-1-.1-1.7s-.2-1.2-.5-1.8-.5-1-.9-1.4-.9-.6-1.5-.6-.9,0-1.1.3-.5.4-.6.8-.2.7-.3,1.1,0,.8,0,1.2v5.7Z"/>
      <path class="cls-2" d="M76.7,20.5c0,1.2-.3,2.1-.9,2.7s-1.5.8-2.6.8-.4,0-.7,0-.6,0-.9.2-.7.2-1,.4-.6.5-.9.8-.5.8-.7,1.3-.3,1.1-.3,1.9v6.7c0,.6,0,1.3-.1,1.9s-.2,1.2-.5,1.6-.6.9-1.1,1.2-1.1.4-1.9.4-1.4-.1-1.9-.4-.8-.7-1-1.2-.4-1-.5-1.6-.1-1.2-.1-1.9v-13.1c0-.7,0-1.3.1-1.9s.2-1.2.5-1.7.6-.9,1-1.2,1.1-.4,1.9-.4,1.4.2,1.8.5.7.8.9,1.4.3,1.2.4,1.9,0,1.3,0,2h.4c.2-.9.5-1.7.9-2.4s.8-1.3,1.2-1.8.9-.9,1.4-1.1,1-.4,1.5-.4,1.1,0,1.5.2.7.3.9.6.4.6.4,1.1.1,1,.1,1.6Z"/>
      <path class="cls-2" d="M80.8,12.8c0-.7,0-1.3,0-1.9s.2-1.2.4-1.7.6-.9,1-1.2,1.1-.4,1.9-.4,1.4.1,1.9.4.8.7,1,1.2.3,1,.4,1.7,0,1.3,0,1.9v9.2h.4l4.8-5.7c.3-.3.6-.6,1-.7s.8-.2,1.2-.2.8,0,1.2.2.8.4,1.1.6.6.6.8,1,.3.8.3,1.3-.2,1.2-.7,1.7l-4.2,5,4.6,8.8c.3.6.5,1.1.7,1.7s.3,1.1.3,1.6-.1.9-.3,1.3-.5.7-.9,1-.7.5-1.2.6-.8.2-1.3.2-1-.1-1.4-.4-.8-.6-1.1-.9-.6-.8-.8-1.2-.4-.8-.6-1.2l-2.6-5.6h-1.3v3.9c0,.7,0,1.3,0,1.9s-.2,1.2-.4,1.7-.5.9-1,1.2-1.1.4-1.9.4-1.4-.1-1.9-.4-.8-.7-1-1.2-.4-1.1-.4-1.7,0-1.3,0-1.9V12.8Z"/>
      <path class="cls-2" d="M123,27.1c0,.2,0,.5,0,.9s-.2.7-.4,1-.5.6-1,.8-1.1.3-1.9.3h-9.3v2.2c0,.4,0,.8.1,1.2s.3.8.5,1.1.5.6.9.8.8.3,1.4.3,1.1,0,1.4-.2.6-.3.8-.6.4-.5.5-.7.4-.5.6-.7.6-.4,1.1-.6,1.1-.2,1.9-.2.8,0,1.1,0,.7.2,1,.4.5.4.7.7.3.7.3,1.2c0,1-.3,1.9-1,2.5s-1.4,1.2-2.4,1.6-2,.7-3.2.9-2.2.3-3.2.3c-1.3,0-2.5-.2-3.7-.5s-2.2-.8-3.1-1.5-1.6-1.6-2.1-2.7-.8-2.5-.8-4.1v-5.5c0-1.5.2-2.7.5-3.8s.8-1.9,1.4-2.6,1.2-1.2,1.9-1.6,1.4-.7,2.1-.9,1.4-.3,2.1-.4,1.2,0,1.7,0c1.6,0,2.9.1,4,.4s2.1.6,2.8,1.1,1.3,1,1.8,1.6.8,1.2,1,1.8.4,1.3.4,1.9,0,1.3,0,1.8v1.5ZM110.3,26.5h5.9c0-.7,0-1.4,0-2s-.2-1.1-.4-1.4-.5-.7-.9-.9-1-.3-1.8-.3-1.1.1-1.5.3-.6.5-.8.8-.3.6-.4,1,0,.6,0,.9v1.6Z"/>
      <path class="cls-2" d="M143,20.5c0,1.2-.3,2.1-.9,2.7s-1.5.8-2.6.8-.4,0-.7,0-.6,0-.9.2-.7.2-1,.4-.6.5-.9.8-.5.8-.7,1.3-.3,1.1-.3,1.9v6.7c0,.6,0,1.3-.1,1.9s-.2,1.2-.5,1.6-.6.9-1.1,1.2-1.1.4-1.9.4-1.4-.1-1.9-.4-.8-.7-1-1.2-.4-1-.5-1.6-.1-1.2-.1-1.9v-13.1c0-.7,0-1.3.1-1.9s.2-1.2.5-1.7.6-.9,1-1.2,1.1-.4,1.9-.4,1.4.2,1.8.5.7.8.9,1.4.3,1.2.4,1.9,0,1.3,0,2h.4c.2-.9.5-1.7.9-2.4s.8-1.3,1.2-1.8.9-.9,1.4-1.1,1-.4,1.5-.4,1.1,0,1.5.2.7.3.9.6.4.6.4,1.1.1,1,.1,1.6Z"/>
      <path class="cls-2" d="M172.6,27.5v7.6c0,.7,0,1.3,0,2s-.2,1.2-.4,1.7-.6.9-1.1,1.2-1.2.5-2.1.5-1.6-.2-2-.5-.8-.7-1-1.2-.3-1.1-.4-1.7,0-1.3,0-2V12.9c0-.7,0-1.3,0-2s.2-1.2.4-1.7.6-.9,1-1.2,1.2-.5,2-.5h7.7c1.9,0,3.7.5,5.2,1.2.7.3,1.3.7,1.9,1.2s1.2,1,1.7,1.7.9,1.5,1.2,2.4.4,2,.4,3.2-.3,3.1-.8,4.4-1.3,2.3-2.3,3.2-2.2,1.5-3.6,1.9-3,.6-4.8.6h-3ZM175.8,21.9c.8,0,1.5-.2,2.1-.6.3-.1.5-.3.8-.5s.5-.5.7-.8.4-.7.5-1.1.2-.9.2-1.5,0-1-.2-1.4-.3-.7-.5-1-.4-.5-.6-.7-.5-.4-.7-.5c-.6-.3-1.3-.5-2-.5h-3.4v8.8h3.2Z"/>
      <path class="cls-2" d="M209.5,27.1c0,.2,0,.5,0,.9s-.2.7-.4,1-.5.6-1,.8-1.1.3-1.9.3h-9.3v2.2c0,.4,0,.8.1,1.2s.3.8.5,1.1.5.6.9.8.8.3,1.4.3,1.1,0,1.4-.2.6-.3.8-.6.4-.5.5-.7.4-.5.6-.7.6-.4,1.1-.6,1.1-.2,1.9-.2.8,0,1.1,0,.7.2,1,.4.5.4.7.7.3.7.3,1.2c0,1-.3,1.9-1,2.5s-1.4,1.2-2.4,1.6-2,.7-3.2.9-2.2.3-3.2.3c-1.3,0-2.5-.2-3.7-.5s-2.2-.8-3.1-1.5-1.6-1.6-2.1-2.7-.8-2.5-.8-4.1v-5.5c0-1.5.2-2.7.5-3.8s.8-1.9,1.4-2.6,1.2-1.2,1.9-1.6,1.4-.7,2.1-.9,1.4-.3,2.1-.4,1.2,0,1.7,0c1.6,0,2.9.1,4,.4s2.1.6,2.8,1.1,1.3,1,1.8,1.6.8,1.2,1,1.8.4,1.3.4,1.9,0,1.3,0,1.8v1.5ZM196.8,26.5h5.9c0-.7,0-1.4,0-2s-.2-1.1-.4-1.4-.5-.7-.9-.9-1-.3-1.8-.3-1.1.1-1.5.3-.6.5-.8.8-.3.6-.4,1,0,.6,0,.9v1.6Z"/>
      <path class="cls-2" d="M234.1,35.1c0,.7,0,1.3-.1,2s-.2,1.2-.5,1.7-.6.9-1.1,1.2-1.1.5-1.9.5-1.4-.2-1.9-.5-.8-.7-1.1-1.2-.4-1.1-.5-1.7-.1-1.3-.1-2v-9.1c0-.4,0-.9,0-1.3s-.1-.8-.3-1.1-.3-.6-.6-.8-.6-.3-1.1-.3-1.2.2-1.5.6-.7,1-.9,1.7-.4,1.6-.5,2.6-.1,2.1-.1,3.2v4.5c0,.7,0,1.3-.1,2s-.2,1.2-.5,1.7-.6.9-1.1,1.2-1.1.5-1.9.5-1.4-.2-1.9-.5-.8-.7-1.1-1.2-.4-1.1-.5-1.7-.1-1.3-.1-2v-12.8c0-.7,0-1.3,0-2s.2-1.2.4-1.7.6-.9,1.1-1.2,1.1-.5,2-.5,1.5.1,2,.4.8.6,1.1,1,.4.8.5,1.3,0,.8,0,1.2c.1-.5.3-.9.6-1.4s.6-.9,1-1.3.9-.7,1.5-.9,1.2-.4,2-.4,1.7.1,2.6.4,1.6.8,2.3,1.4,1.2,1.5,1.7,2.6.6,2.4.6,3.9v9.8Z"/>
      <path class="cls-2" d="M258.2,35.1c0,.7,0,1.3,0,1.9s-.2,1.2-.4,1.7-.6.9-1.1,1.2-1.1.5-2,.5-1.5-.1-2-.4-.8-.6-1.1-1.1-.4-.8-.4-1.3,0-.8,0-1.1c-.1.5-.3.9-.6,1.4s-.6.9-1,1.3-.9.7-1.5.9-1.2.4-2,.4-1.7-.1-2.6-.4-1.6-.8-2.3-1.4-1.2-1.5-1.7-2.6-.6-2.4-.6-3.9v-6.8c0-1.6.2-2.9.6-3.9s1-1.9,1.7-2.6,1.5-1.1,2.3-1.4,1.7-.4,2.6-.4,1.4.1,2,.4,1.1.5,1.5.9.7.8,1,1.3.5.9.6,1.4c0-.8.1-1.4.3-1.9s.5-.9.8-1.2.7-.5,1.2-.6.9-.2,1.3-.2c.8,0,1.4.2,1.9.5s.8.7,1.1,1.2.4,1.1.5,1.7.1,1.3.1,2v12.8ZM246,31.5c0,.4,0,.8,0,1.2s.1.8.3,1.1.3.6.6.8.7.3,1.1.3,1.1-.1,1.5-.4.7-.7.9-1.3.4-1.3.5-2.2.1-1.9.2-3.1c0-.5,0-1-.1-1.7s-.2-1.2-.5-1.8-.5-1-.9-1.4-.9-.6-1.5-.6-.9,0-1.1.3-.5.4-.6.8-.2.7-.3,1.1,0,.8,0,1.2v5.7Z"/>
      <path class="cls-2" d="M273.9,17c.4,0,.8,0,1.2,0s.8.2,1.1.4.6.5.8.9.3.9.3,1.6-.1,1.1-.3,1.5-.5.6-.8.8-.7.3-1.1.4-.8,0-1.2,0h-1.4v12.4c0,.7,0,1.3-.1,2s-.2,1.2-.5,1.7-.6.9-1.1,1.2-1.2.4-2,.4-1.4-.1-1.9-.4-.8-.7-1-1.2-.4-1.1-.4-1.7,0-1.3,0-2v-12.4h-1.3c-.4,0-.9,0-1.3,0s-.8-.2-1.1-.4-.6-.5-.7-.8-.3-.9-.3-1.5,0-1.2.3-1.6.4-.7.7-.9.7-.3,1.1-.4.8,0,1.3,0h1.3c0-1.4,0-2.6.2-3.8s.4-2.1.9-3,1.2-1.5,2.2-1.9,2.3-.7,3.9-.7,1.4,0,2,.2,1.2.3,1.6.6.8.6,1.1,1,.4.9.4,1.6,0,1-.3,1.4-.4.7-.7.9-.6.4-.9.5-.6.1-.9.1-.5,0-.7-.2-.4-.2-.7-.2-.4,0-.5.2-.2.3-.3.6-.1.5-.1.8,0,.6,0,.8v1h1.4Z"/>
      <path class="cls-2" d="M281.9,22.2c0-.7,0-1.3.1-1.9s.2-1.2.5-1.7.6-.9,1.1-1.2,1.1-.5,1.9-.5,1.4.2,1.9.5.8.7,1.1,1.2.4,1.1.5,1.7.1,1.3.1,1.9v12.9c0,.7,0,1.3-.1,1.9s-.2,1.2-.5,1.7-.6.9-1.1,1.2-1.1.4-1.9.4-1.4-.1-1.9-.4-.8-.7-1.1-1.2-.4-1.1-.5-1.7-.1-1.3-.1-1.9v-12.9ZM289.1,11.2c0,1.2-.3,2.1-.9,2.7s-1.5.9-2.6.9-2-.3-2.6-.9-.9-1.5-.9-2.7.3-2.2.9-2.7,1.5-.8,2.6-.8,2.1.3,2.7.8.9,1.5.9,2.7Z"/>
      <path class="cls-2" d="M314.9,27.1c0,.2,0,.5,0,.9s-.2.7-.4,1-.5.6-1,.8-1.1.3-1.9.3h-9.3v2.2c0,.4,0,.8.1,1.2s.3.8.5,1.1.5.6.9.8.8.3,1.4.3,1.1,0,1.4-.2.6-.3.8-.6.4-.5.5-.7.4-.5.6-.7.6-.4,1.1-.6,1.1-.2,1.9-.2.8,0,1.1,0,.7.2,1,.4.5.4.7.7.3.7.3,1.2c0,1-.3,1.9-1,2.5s-1.4,1.2-2.4,1.6-2,.7-3.2.9-2.2.3-3.2.3c-1.3,0-2.5-.2-3.7-.5s-2.2-.8-3.1-1.5-1.6-1.6-2.1-2.7-.8-2.5-.8-4.1v-5.5c0-1.5.2-2.7.5-3.8s.8-1.9,1.4-2.6,1.2-1.2,1.9-1.6,1.4-.7,2.1-.9,1.4-.3,2.1-.4,1.2,0,1.7,0c1.6,0,2.9.1,4,.4s2.1.6,2.8,1.1,1.3,1,1.8,1.6.8,1.2,1,1.8.4,1.3.4,1.9,0,1.3,0,1.8v1.5ZM302.3,26.5h5.9c0-.7,0-1.4,0-2s-.2-1.1-.4-1.4-.5-.7-.9-.9-1-.3-1.8-.3-1.1.1-1.5.3-.6.5-.8.8-.3.6-.4,1,0,.6,0,.9v1.6Z"/>
      <path class="cls-2" d="M320.2,12.8c0-.7,0-1.3.1-1.9s.2-1.2.5-1.7.6-.9,1.1-1.2,1.1-.4,1.9-.4,1.5.1,1.9.4.8.7,1.1,1.2.4,1,.5,1.7.1,1.3.1,1.9v22.4c0,.7,0,1.3-.1,1.9s-.2,1.2-.5,1.7-.6.9-1.1,1.2-1.1.4-1.9.4-1.4-.1-1.9-.4-.8-.7-1.1-1.2-.4-1.1-.5-1.7-.1-1.3-.1-1.9V12.8Z"/>
    </g>
    <g class="cls-4">
      <path class="cls-3" d="M121.6,84c-1.1,0-2.2-.3-3.3-.9s-1.9-1.5-2.6-2.7c-.7-1.2-1-2.9-1-4.9s.3-4,1-5.4c.7-1.3,1.5-2.3,2.6-2.9,1.1-.6,2.1-.9,3.3-.9,1.7,0,3.3.3,4.7.9l-.4-6.8.4-2.2h6.5v19.7l.7,3.6-.7,2.2h-6.2v-1.8l-.4-.2c-.7.7-1.4,1.3-2.1,1.7-.7.4-1.5.6-2.6.6ZM124.3,78.9l2-.5v-5.3c0-.6-.2-1-.5-1.3-.4-.3-.8-.5-1.4-.5-.9,0-1.6.3-2,.9-.5.6-.7,1.6-.7,2.9s.3,2.3.8,2.9c.5.6,1.2.9,1.9.9Z"/>
      <path class="cls-3" d="M145.4,84c-1.8,0-3.5-.3-4.9-.8-1.4-.6-2.6-1.5-3.4-2.8-.8-1.3-1.2-3-1.2-5.3s.3-2.9.8-4.1c.5-1.1,1.3-2,2.2-2.8.9-.7,1.9-1.2,3.1-1.5,1.1-.3,2.3-.5,3.5-.5,2.1,0,3.7.2,4.8.6,1.1.4,1.9.7,2.2,1l1.8,5.7-.7,2.2h-11.2c.2.9.6,1.6,1.3,2.2.7.6,1.9.9,3.6.9s2.4-.1,3.3-.4,1.7-.5,2.2-.8v4.8c-.7.4-1.8.7-3.1,1-1.4.3-2.8.4-4.2.4ZM142.4,73.5l5-.7-.3-1.5c-.2,0-.4-.2-.7-.2-.3,0-.6,0-.8,0-.7,0-1.2.1-1.7.4-.4.3-.8.6-1,1-.2.4-.4.8-.4,1.1Z"/>
      <path class="cls-3" d="M164.2,84c-1.8,0-3.3-.2-4.6-.5-1.3-.4-2.4-.7-3.1-1.1v-5c1,.4,2,.8,3,1,1,.2,2,.4,2.8.5.8,0,1.4.1,1.8.1s.7,0,.9-.2.3-.3.3-.5-.2-.5-.6-.7c-.4-.2-1.2-.4-2.4-.7-1-.2-1.9-.5-2.9-.9-.9-.4-1.7-.9-2.3-1.6-.6-.7-.9-1.6-.9-2.7s.3-2.5,1-3.3c.6-.8,1.6-1.3,2.8-1.7,1.2-.3,2.6-.5,4.2-.5s1.8,0,2.6.1c.8,0,1.4.2,1.7.2l3.3,2.2-1.6,3.9-6.3-1.4c-.8,0-1.2.3-1.2.8s.6.9,1.7,1.2c.9.2,1.8.4,2.7.6.9.2,1.7.5,2.5.9.8.4,1.4.8,1.8,1.4.5.6.7,1.4.7,2.4,0,1.8-.7,3.2-2,4.1-1.3.9-3.2,1.4-5.8,1.4Z"/>
      <path class="cls-3" d="M178.5,65.6l-4.6-4.6,4.6-4.6,4.6,4.6-4.6,4.6ZM175.2,83.6v-11.9l-.8-2.9.7-2.2h6.5v17h-6.5Z"/>
      <path class="cls-3" d="M192.8,92.4c-.6,0-1.3,0-2.1,0-.8,0-1.4,0-1.9-.1l-4.4-2.1,1.8-4.7,5.7,1.8c3.2,0,4.8-1.3,4.8-4v-.7l-.4-.2c-.3.3-.9.7-1.6,1s-1.9.5-3.4.5-2.2-.3-3.3-.8c-1.1-.6-1.9-1.5-2.6-2.7-.7-1.2-1-2.9-1-4.9s.3-4,1-5.4c.7-1.4,1.5-2.3,2.6-3,1-.6,2.1-.9,3.3-.9s2.3.2,3.1.5c.8.4,1.3.7,1.6,1v-1.2h6.5l.4,2.2-.4,2.2v12.7c0,2.1-.4,3.7-1.2,5-.8,1.3-1.9,2.2-3.4,2.8s-3.2.9-5.1.9ZM194,78.8c.4,0,.8,0,1.2-.2s.6-.2.8-.3v-6.7c0,0-.3-.1-.5-.2-.3,0-.6-.1-1.1-.1-.9,0-1.7.3-2.2.9-.6.6-.8,1.6-.8,2.9s.3,2.3.8,2.9c.5.6,1.2.9,1.9.9Z"/>
      <path class="cls-3" d="M206.5,83.6v-10.8l-.7-4,1.1-2.2h5.4v1.5l.3.2c.3-.2.6-.5,1.1-.8s1-.6,1.7-.9c.7-.3,1.4-.4,2.3-.4,2.2,0,3.8.6,4.9,1.8,1.1,1.2,1.6,2.9,1.6,5.1v4.6l.8,3.6-.8,2.2h-6.5v-9.4c0-.9-.2-1.6-.6-2.1-.4-.5-1-.7-1.9-.7l-2.2.7v11.6h-6.5Z"/>
    </g>
  </g>
</svg>